<?xml version="1.0" encoding="iso-8859-1"?>
<!-- Generator: Adobe Illustrator 19.0.0, SVG Export Plug-In . SVG Version: 6.00 Build 0)  -->
<svg version="1.1" id="Layer_1" xmlns="http://www.w3.org/2000/svg" xmlns:xlink="http://www.w3.org/1999/xlink" x="0px" y="0px"
	 viewBox="0 0 512 512" style="enable-background:new 0 0 512 512;" xml:space="preserve">
<path style="fill:#5286FA;" d="M488.727,186.182h-93.091h-93.091h-23.273V23.273C279.273,10.42,268.853,0,256,0
	c-12.853,0-23.273,10.42-23.273,23.273v162.909h-23.273h-93.091H23.273C10.42,186.182,0,196.602,0,209.455v93.091v93.091v93.091
	C0,501.578,10.42,512,23.273,512h93.091H256h139.636h93.091C501.58,512,512,501.578,512,488.727v-93.091v-93.091v-93.091
	C512,196.602,501.58,186.182,488.727,186.182z"/>
<path style="fill:#3440DB;" d="M256,0c-12.853,0-23.273,10.42-23.273,23.273v162.909H256h23.273V23.273
	C279.273,10.42,268.853,0,256,0z"/>
<path style="fill:#2E36D2;" d="M256,0c-12.853,0-23.273,10.42-23.273,23.273v162.909H256V0z"/>
<g>
	<rect x="232.727" y="325.818" style="fill:#00D7DF;" width="23.273" height="46.545"/>
	<rect x="139.636" y="325.818" style="fill:#00D7DF;" width="46.545" height="46.545"/>
	<rect x="46.545" y="325.818" style="fill:#00D7DF;" width="46.545" height="46.545"/>
	<rect x="232.727" y="232.727" style="fill:#00D7DF;" width="23.273" height="46.545"/>
	<rect x="139.636" y="232.727" style="fill:#00D7DF;" width="46.545" height="46.545"/>
	<rect x="46.545" y="232.727" style="fill:#00D7DF;" width="46.545" height="46.545"/>
	<polygon style="fill:#00D7DF;" points="139.636,418.909 139.636,465.455 256,465.455 256,418.909 209.455,418.909 	"/>
	<rect x="46.545" y="418.909" style="fill:#00D7DF;" width="46.545" height="46.545"/>
</g>
<path style="fill:#3D6DEB;" d="M139.636,465.455v-46.545h69.818H256v-46.545h-23.273v-46.545H256v-46.545h-23.273v-46.545H256
	v-46.545h-23.273h-23.273h-93.091H23.273C10.42,186.182,0,196.602,0,209.455v93.091v93.091v93.091C0,501.578,10.42,512,23.273,512
	h93.091H256v-46.545H139.636z M139.636,232.727h46.545v46.545h-46.545V232.727z M139.636,325.818h46.545v46.545h-46.545V325.818z
	 M93.091,465.455H46.545v-46.545h46.545V465.455z M93.091,372.364H46.545v-46.545h46.545V372.364z M93.091,279.273H46.545v-46.545
	h46.545V279.273z"/>
<g>
	<rect x="418.909" y="325.818" style="fill:#00E7F0;" width="46.545" height="46.545"/>
	<rect x="325.818" y="325.818" style="fill:#00E7F0;" width="46.545" height="46.545"/>
	<rect x="256" y="325.818" style="fill:#00E7F0;" width="23.273" height="46.545"/>
	<rect x="418.909" y="232.727" style="fill:#00E7F0;" width="46.545" height="46.545"/>
	<rect x="325.818" y="232.727" style="fill:#00E7F0;" width="46.545" height="46.545"/>
	<rect x="256" y="232.727" style="fill:#00E7F0;" width="23.273" height="46.545"/>
	<rect x="418.909" y="418.909" style="fill:#00E7F0;" width="46.545" height="46.545"/>
	<polygon style="fill:#00E7F0;" points="372.364,465.455 372.364,418.909 302.545,418.909 256,418.909 256,465.455 	"/>
</g>
<g>
</g>
<g>
</g>
<g>
</g>
<g>
</g>
<g>
</g>
<g>
</g>
<g>
</g>
<g>
</g>
<g>
</g>
<g>
</g>
<g>
</g>
<g>
</g>
<g>
</g>
<g>
</g>
<g>
</g>
</svg>
